<?xml version="1.0" standalone="no"?>
<!DOCTYPE svg PUBLIC "-//W3C//DTD SVG 1.1//EN" "http://www.w3.org/Graphics/SVG/1.1/DTD/svg11.dtd">
<svg width="800" height="600" version="1.1" xmlns="http://www.w3.org/2000/svg">
<rect width="800" height="600" x="0" y="0" style="fill:rgb(238,238,238);stroke:none"/>
<rect width="800" height="600" x="0" y="0" style="fill:rgb(255,255,255);stroke:none"/>
<text x="2" y="566" fill="rgb(0,0,0)" font-family="Arial" font-size="12">0</text>
<text x="2" y="469" fill="rgb(0,0,0)" font-family="Arial" font-size="12">5000000</text>
<text x="2" y="371" fill="rgb(0,0,0)" font-family="Arial" font-size="12">1.0E7</text>
<text x="2" y="274" fill="rgb(0,0,0)" font-family="Arial" font-size="12">1.5E7</text>
<text x="2" y="176" fill="rgb(0,0,0)" font-family="Arial" font-size="12">2.0E7</text>
<text x="2" y="78" fill="rgb(0,0,0)" font-family="Arial" font-size="12">2.5E7</text>
<text x="286" y="30" fill="rgb(0,0,0)" font-family="Arial" font-size="12">Quality score distribution over all sequences</text>
<line x1="61" y1="560" x2="790" y2="560" stroke="rgb(0,0,0)" stroke-width="1"/>
<line x1="61" y1="560" x2="61" y2="40" stroke="rgb(0,0,0)" stroke-width="1"/>
<text x="281" y="595" fill="rgb(0,0,0)" font-family="Arial" font-size="12">Mean Sequence Quality (Phred Score)</text>
<text x="67" y="575" fill="rgb(0,0,0)" font-family="Arial" font-size="12">12</text>
<rect width="28" height="520" x="89" y="40" style="fill:rgb(230,230,230);stroke:none"/>
<text x="95" y="575" fill="rgb(0,0,0)" font-family="Arial" font-size="12">13</text>
<text x="123" y="575" fill="rgb(0,0,0)" font-family="Arial" font-size="12">14</text>
<rect width="28" height="520" x="145" y="40" style="fill:rgb(230,230,230);stroke:none"/>
<text x="151" y="575" fill="rgb(0,0,0)" font-family="Arial" font-size="12">15</text>
<text x="179" y="575" fill="rgb(0,0,0)" font-family="Arial" font-size="12">16</text>
<rect width="28" height="520" x="201" y="40" style="fill:rgb(230,230,230);stroke:none"/>
<text x="207" y="575" fill="rgb(0,0,0)" font-family="Arial" font-size="12">17</text>
<text x="235" y="575" fill="rgb(0,0,0)" font-family="Arial" font-size="12">18</text>
<rect width="28" height="520" x="257" y="40" style="fill:rgb(230,230,230);stroke:none"/>
<text x="263" y="575" fill="rgb(0,0,0)" font-family="Arial" font-size="12">19</text>
<text x="291" y="575" fill="rgb(0,0,0)" font-family="Arial" font-size="12">20</text>
<rect width="28" height="520" x="313" y="40" style="fill:rgb(230,230,230);stroke:none"/>
<text x="319" y="575" fill="rgb(0,0,0)" font-family="Arial" font-size="12">21</text>
<text x="347" y="575" fill="rgb(0,0,0)" font-family="Arial" font-size="12">22</text>
<rect width="28" height="520" x="369" y="40" style="fill:rgb(230,230,230);stroke:none"/>
<text x="375" y="575" fill="rgb(0,0,0)" font-family="Arial" font-size="12">23</text>
<text x="403" y="575" fill="rgb(0,0,0)" font-family="Arial" font-size="12">24</text>
<rect width="28" height="520" x="425" y="40" style="fill:rgb(230,230,230);stroke:none"/>
<text x="431" y="575" fill="rgb(0,0,0)" font-family="Arial" font-size="12">25</text>
<text x="459" y="575" fill="rgb(0,0,0)" font-family="Arial" font-size="12">26</text>
<rect width="28" height="520" x="481" y="40" style="fill:rgb(230,230,230);stroke:none"/>
<text x="487" y="575" fill="rgb(0,0,0)" font-family="Arial" font-size="12">27</text>
<text x="515" y="575" fill="rgb(0,0,0)" font-family="Arial" font-size="12">28</text>
<rect width="28" height="520" x="537" y="40" style="fill:rgb(230,230,230);stroke:none"/>
<text x="543" y="575" fill="rgb(0,0,0)" font-family="Arial" font-size="12">29</text>
<text x="571" y="575" fill="rgb(0,0,0)" font-family="Arial" font-size="12">30</text>
<rect width="28" height="520" x="593" y="40" style="fill:rgb(230,230,230);stroke:none"/>
<text x="599" y="575" fill="rgb(0,0,0)" font-family="Arial" font-size="12">31</text>
<text x="627" y="575" fill="rgb(0,0,0)" font-family="Arial" font-size="12">32</text>
<rect width="28" height="520" x="649" y="40" style="fill:rgb(230,230,230);stroke:none"/>
<text x="655" y="575" fill="rgb(0,0,0)" font-family="Arial" font-size="12">33</text>
<text x="683" y="575" fill="rgb(0,0,0)" font-family="Arial" font-size="12">34</text>
<rect width="28" height="520" x="705" y="40" style="fill:rgb(230,230,230);stroke:none"/>
<text x="711" y="575" fill="rgb(0,0,0)" font-family="Arial" font-size="12">35</text>
<text x="739" y="575" fill="rgb(0,0,0)" font-family="Arial" font-size="12">36</text>
<rect width="28" height="520" x="761" y="40" style="fill:rgb(230,230,230);stroke:none"/>
<text x="767" y="575" fill="rgb(0,0,0)" font-family="Arial" font-size="12">37</text>
<line x1="61" y1="560" x2="790" y2="560" stroke="rgb(180,180,180)" stroke-width="1"/>
<line x1="61" y1="463" x2="790" y2="463" stroke="rgb(180,180,180)" stroke-width="1"/>
<line x1="61" y1="365" x2="790" y2="365" stroke="rgb(180,180,180)" stroke-width="1"/>
<line x1="61" y1="268" x2="790" y2="268" stroke="rgb(180,180,180)" stroke-width="1"/>
<line x1="61" y1="170" x2="790" y2="170" stroke="rgb(180,180,180)" stroke-width="1"/>
<line x1="61" y1="72" x2="790" y2="72" stroke="rgb(180,180,180)" stroke-width="1"/>
<line x1="75" y1="560" x2="103" y2="560" stroke="rgb(136,34,85)" stroke-width="1"/>
<line x1="103" y1="560" x2="131" y2="560" stroke="rgb(136,34,85)" stroke-width="1"/>
<line x1="131" y1="560" x2="159" y2="560" stroke="rgb(136,34,85)" stroke-width="1"/>
<line x1="159" y1="560" x2="187" y2="560" stroke="rgb(136,34,85)" stroke-width="1"/>
<line x1="187" y1="560" x2="215" y2="560" stroke="rgb(136,34,85)" stroke-width="1"/>
<line x1="215" y1="560" x2="243" y2="560" stroke="rgb(136,34,85)" stroke-width="1"/>
<line x1="243" y1="560" x2="271" y2="560" stroke="rgb(136,34,85)" stroke-width="1"/>
<line x1="271" y1="560" x2="299" y2="560" stroke="rgb(136,34,85)" stroke-width="1"/>
<line x1="299" y1="560" x2="327" y2="560" stroke="rgb(136,34,85)" stroke-width="1"/>
<line x1="327" y1="560" x2="355" y2="560" stroke="rgb(136,34,85)" stroke-width="1"/>
<line x1="355" y1="560" x2="383" y2="560" stroke="rgb(136,34,85)" stroke-width="1"/>
<line x1="383" y1="560" x2="411" y2="560" stroke="rgb(136,34,85)" stroke-width="1"/>
<line x1="411" y1="560" x2="439" y2="559" stroke="rgb(136,34,85)" stroke-width="1"/>
<line x1="439" y1="559" x2="467" y2="558" stroke="rgb(136,34,85)" stroke-width="1"/>
<line x1="467" y1="558" x2="495" y2="557" stroke="rgb(136,34,85)" stroke-width="1"/>
<line x1="495" y1="557" x2="523" y2="555" stroke="rgb(136,34,85)" stroke-width="1"/>
<line x1="523" y1="555" x2="551" y2="553" stroke="rgb(136,34,85)" stroke-width="1"/>
<line x1="551" y1="553" x2="579" y2="550" stroke="rgb(136,34,85)" stroke-width="1"/>
<line x1="579" y1="550" x2="607" y2="546" stroke="rgb(136,34,85)" stroke-width="1"/>
<line x1="607" y1="546" x2="635" y2="541" stroke="rgb(136,34,85)" stroke-width="1"/>
<line x1="635" y1="541" x2="663" y2="531" stroke="rgb(136,34,85)" stroke-width="1"/>
<line x1="663" y1="531" x2="691" y2="512" stroke="rgb(136,34,85)" stroke-width="1"/>
<line x1="691" y1="512" x2="719" y2="445" stroke="rgb(136,34,85)" stroke-width="1"/>
<line x1="719" y1="445" x2="747" y2="40" stroke="rgb(136,34,85)" stroke-width="1"/>
<line x1="747" y1="40" x2="775" y2="530" stroke="rgb(136,34,85)" stroke-width="1"/>
<rect width="183" height="23" x="607" y="40" style="fill:rgb(255,255,255);stroke:none"/>
<rect width="183" height="23" x="607" y="40" rx="0" ry="0" style="fill:none;stroke-width:1;stroke:rgb(192,192,192)"/>
<text x="610" y="55" fill="rgb(136,34,85)" font-family="Arial" font-size="12" font-weight="bold">Average Quality per read</text>
</svg>
